<?xml version="1.0" standalone="no"?>
<!DOCTYPE svg PUBLIC "-//W3C//DTD SVG 20010904//EN"
 "http://www.w3.org/TR/2001/REC-SVG-20010904/DTD/svg10.dtd">
<svg version="1.0" xmlns="http://www.w3.org/2000/svg"
 width="67.000000pt" height="67.000000pt" viewBox="0 0 67.000000 67.000000"
 preserveAspectRatio="xMidYMid meet">

<g transform="translate(0.000000,67.000000) scale(0.100000,-0.100000)"
fill="#000000" stroke="none">
<path d="M223 623 c-58 -20 -139 -95 -170 -157 -104 -205 50 -450 283 -450 63
0 81 4 140 34 153 78 213 248 144 408 -28 66 -111 144 -176 166 -58 20 -165
19 -221 -1z m224 -61 c55 -29 118 -102 133 -157 18 -66 8 -155 -25 -210 -24
-41 -95 -105 -117 -105 -4 0 -8 15 -8 33 0 17 -13 55 -29 83 l-28 52 28 27
c24 22 29 35 29 73 0 26 -5 64 -11 85 -10 37 -11 38 -29 22 -11 -10 -22 -25
-25 -35 -8 -26 -55 -13 -85 23 l-26 30 -12 -39 c-20 -69 -13 -124 19 -156 l28
-28 -30 -56 c-16 -31 -29 -69 -29 -85 0 -35 -3 -35 -46 -8 -38 23 -85 86 -102
138 -46 133 36 286 178 332 42 14 142 3 187 -19z"/>
</g>
</svg>
